 <svg version="1.0" xmlns="http://www.w3.org/2000/svg" width="700.000000pt" height="700.000000pt" viewBox="0 0 700.000000 700.000000" preserveAspectRatio="xMidYMid meet">
<metadata>
Created by potrace 1.12, written by Peter Selinger 2001-2015
</metadata>
<g transform="translate(0.000000,700.000000) scale(0.100000,-0.100000)" fill="#000000" stroke="none">
<path d="M0 6380 l0 -620 310 0 310 0 0 310 0 310 310 0 310 0 0 310 0 310
-620 0 -620 0 0 -620z"></path>
<path d="M5760 6690 l0 -310 310 0 310 0 0 -310 0 -310 310 0 310 0 0 620 0
620 -620 0 -620 0 0 -310z"></path>
<path d="M780 3850 l0 -1125 310 3 310 3 0 309 0 310 350 0 350 0 0 310 0 310
310 0 310 0 0 503 0 502 -970 0 -970 0 0 -1125z"></path>
<path d="M4280 4473 l0 -503 350 0 350 0 0 -310 0 -310 310 0 310 0 0 -310 0
-309 310 -3 310 -3 0 1125 0 1125 -970 0 -970 0 0 -502z"></path>
<path d="M3190 2875 l0 -465 -465 0 -465 0 0 -310 0 -310 1240 0 1240 0 0 310
0 310 -465 0 -465 0 0 465 0 465 -310 0 -310 0 0 -465z"></path>
<path d="M0 310 l0 -310 3500 0 3500 0 0 310 0 310 -3500 0 -3500 0 0 -310z"></path>
</g>
</svg>