<svg xmlns="http://www.w3.org/2000/svg" viewBox="0 0 700.000000 700.000000">
    <g transform="translate(0.000000,700.000000) scale(0.100000,-0.100000)" fill="#000000" stroke="none">
		<path d="M3315 6966 c-167 -47 -303 -145 -394 -286 -44 -67 -68 -127 -271
			-670 -55 -147 -107 -286 -169 -450 -21 -58 -63 -168 -91 -245 -29 -77 -62
			-167 -75 -200 -21 -54 -86 -227 -222 -590 -25 -66 -65 -174 -90 -240 -25 -66
			-60 -160 -78 -210 -18 -49 -93 -247 -165 -440 -73 -192 -152 -403 -176 -467
			-24 -65 -65 -173 -90 -240 -25 -68 -61 -163 -79 -213 -18 -49 -93 -247 -165
			-440 -73 -192 -152 -403 -176 -467 -24 -65 -64 -171 -88 -235 -24 -65 -64
			-172 -89 -238 -25 -66 -70 -187 -101 -270 -88 -231 -103 -342 -71 -511 24
			-129 83 -232 190 -339 104 -105 184 -151 314 -184 263 -66 535 23 708 230 74
			89 86 119 319 742 24 64 65 172 90 240 25 67 48 130 51 140 5 16 66 17 1103
			17 1037 0 1098 -1 1103 -17 25 -83 357 -954 385 -1009 166 -328 585 -457 932
			-287 110 54 240 187 298 304 89 180 95 396 18 592 -14 34 -39 100 -56 147 -18
			47 -51 137 -75 200 -100 267 -204 546 -299 800 -42 113 -81 216 -87 230 -6 14
			-40 104 -75 200 -36 96 -78 209 -94 250 -16 41 -43 113 -61 160 -48 131 -102
			276 -294 785 -97 259 -192 511 -210 560 -50 136 -116 313 -180 480 -31 83 -68
			179 -81 215 -12 36 -46 126 -74 200 -29 74 -67 176 -85 225 -224 606 -429
			1144 -456 1195 -146 277 -488 422 -794 336z m269 -2866 c20 -52 58 -156 86
			-230 28 -74 68 -182 90 -240 22 -58 62 -166 90 -240 61 -162 116 -308 169
			-450 22 -58 42 -115 46 -127 l6 -23 -571 0 -571 0 6 23 c4 12 23 63 42 112 19
			50 50 133 70 185 130 353 443 1182 450 1193 6 10 14 -10 87 -203z"></path>
	</g>
</svg>