<svg xmlns="http://www.w3.org/2000/svg" viewBox="0 0 700.000000 700.000000">
    <g transform="translate(0.000000,700.000000) scale(0.100000,-0.100000)" fill="#000000" stroke="none">
        <path d="M3142 6974 c-183 -18 -252 -29 -432 -70 -336 -77 -648 -199 -940
            -367 -744 -427 -1307 -1106 -1577 -1902 -63 -187 -127 -455 -154 -645 -31
            -220 -34 -697 -6 -910 108 -820 475 -1537 1077 -2105 735 -695 1733 -1029
            2760 -925 469 48 985 225 1420 488 l115 70 230 -227 c293 -289 355 -328 570
            -361 332 -51 678 182 758 510 26 104 30 172 17 261 -31 217 -71 279 -360 574
            l-227 230 68 110 c282 454 460 1001 500 1535 13 170 7 524 -11 680 -67 581
            -309 1182 -669 1665 -286 384 -662 718 -1071 950 -270 153 -594 285 -860 349
            -250 60 -277 64 -535 91 -170 18 -492 17 -673 -1z m541 -1379 c126 -9 345 -55
            480 -101 324 -111 598 -284 832 -525 300 -310 487 -682 562 -1119 14 -81 18
            -158 18 -335 0 -263 -16 -379 -80 -590 -35 -114 -99 -279 -116 -299 -5 -6 -33
            9 -66 35 -102 79 -177 114 -288 135 -509 98 -939 -358 -809 -858 20 -80 85
            -204 135 -262 l40 -45 -59 -30 c-147 -74 -391 -141 -607 -167 -230 -27 -555
            -7 -760 47 -142 38 -373 128 -474 186 -204 117 -336 216 -482 363 -339 339
            -536 747 -600 1244 -19 150 -7 475 24 637 63 328 218 663 422 915 90 110 263
            279 367 357 242 181 559 324 833 376 173 32 178 33 302 41 114 7 171 6 326 -5z"></path>
    </g>
</svg>