<svg viewBox="-56 0 512 512" xmlns="http://www.w3.org/2000/svg">
   <path d="m380 38h-70v-18c0-11.046875-8.953125-20-20-20s-20 8.953125-20 20v18h-50v-18c0-11.046875-8.953125-20-20-20s-20 8.953125-20 20v18h-53v-18c0-11.046875-8.953125-20-20-20s-20 8.953125-20 20v18h-67c-11.046875 0-20 8.953125-20 20v434c0 11.046875 8.953125 20 20 20h360c11.046875 0 20-8.953125 20-20v-434c0-11.046875-8.953125-20-20-20zm-20 434h-320v-394h47v42c0 11.046875 8.953125 20 20 20s20-8.953125 20-20v-42h53v42c0 11.046875 8.953125 20 20 20s20-8.953125 20-20v-42h50v42c0 11.046875 8.953125 20 20 20s20-8.953125 20-20v-42h50zm-50-256c0 11.046875-8.953125 20-20 20h-180c-11.046875 0-20-8.953125-20-20s8.953125-20 20-20h180c11.046875 0 20 8.953125 20 20zm0 80c0 11.046875-8.953125 20-20 20h-180c-11.046875 0-20-8.953125-20-20s8.953125-20 20-20h180c11.046875 0 20 8.953125 20 20zm0 80c0 11.046875-8.953125 20-20 20h-180c-11.046875 0-20-8.953125-20-20s8.953125-20 20-20h180c11.046875 0 20 8.953125 20 20zm0 0"/>
</svg>