<svg xmlns="http://www.w3.org/2000/svg" viewBox="0 0 880.000000 880.000000">
    <g transform="translate(0.000000,880.000000) scale(0.100000,-0.100000)" fill="#000000" stroke="none">
        <path d="M1900 8786 c-69 -19 -117 -45 -165 -90 -63 -60 -1272 -1677 -1303
            -1744 l-27 -57 -3 -2855 c-2 -2120 0 -2883 9 -2965 29 -276 149 -528 344 -720
            174 -172 351 -266 620 -332 65 -16 273 -18 2965 -21 2043 -2 2924 0 2995 8 55
            6 145 25 199 41 481 148 806 541 856 1037 8 74 10 974 8 2957 l-3 2850 -32 65
            c-19 39 -282 398 -655 895 -649 864 -659 876 -765 920 -47 20 -82 20 -2523 22
            -1947 1 -2485 -1 -2520 -11z m5000 -1186 l300 -400 -2801 0 -2801 0 29 38 c15
            22 150 201 298 400 l270 361 2202 1 2203 0 300 -400z m700 -3829 c0 -2620 0
            -2629 -20 -2695 -25 -81 -84 -156 -161 -208 -110 -74 142 -68 -3019 -68 -3144
            0 -2907 -5 -3013 64 -90 58 -142 127 -171 225 -14 49 -16 306 -16 2683 l0
            2628 3200 0 3200 0 0 -2629z"/>
        <path d="M2722 5590 c-76 -16 -150 -57 -204 -112 -100 -103 -128 -213 -109
            -434 40 -468 222 -879 538 -1214 534 -568 1362 -773 2100 -519 640 221 1122
            743 1288 1399 47 184 73 448 56 553 -29 172 -155 298 -330 328 -121 22 -255
            -23 -343 -113 -68 -70 -99 -140 -110 -248 -29 -289 -55 -403 -128 -551 -61
            -126 -128 -219 -234 -324 -163 -163 -329 -258 -552 -317 -111 -29 -131 -32
            -289 -32 -141 0 -185 4 -260 21 -130 32 -196 57 -304 114 -322 172 -544 466
            -616 817 -9 41 -20 132 -25 203 -12 149 -32 214 -90 287 -46 57 -99 96 -168
            122 -61 23 -161 32 -220 20z"/>
    </g>
</svg>