<svg xmlns="http://www.w3.org/2000/svg" viewBox="0 0 512 512">
    <path d="m196 422h-30c-8.284 0-15 6.716-15 15s6.716 15 15 15h30c8.284 0 15-6.716 15-15s-6.716-15-15-15z"/>
    <path d="m286.5 211h30c8.284 0 15-6.716 15-15s-6.716-15-15-15h-30c-8.284 0-15 6.716-15 15s6.716 15 15 15z"/>
    <path d="m497 241h-105.5v-226c0-8.284-6.716-15-15-15h-241c-8.284 0-15 6.716-15 15v226h-105.5c-8.284 0-15 6.716-15 15v241c0 8.284 6.716 15 15 15h482c8.284 0 15-6.716 15-15v-241c0-8.284-6.716-15-15-15zm-138 30h35v60h-35zm-120.5-241h35v60h-35zm-88 0h58v75c0 8.284 6.716 15 15 15h65c8.284 0 15-6.716 15-15v-75h58v211h-211zm-32.5 241h35v60h-35zm-88 0h58v75c0 8.284 6.716 15 15 15h65c8.284 0 15-6.716 15-15v-75h58v211h-211zm452 211h-211v-211h58v75c0 8.284 6.716 15 15 15h65c8.284 0 15-6.716 15-15v-75h58z"/>
    <path d="m407 422c-8.284 0-15 6.716-15 15s6.716 15 15 15h30c8.284 0 15-6.716 15-15s-6.716-15-15-15z"/>
</svg>