<svg xmlns="http://www.w3.org/2000/svg" viewBox="0 0 192 192">
    <path d="M144,66.025V32c0-21.008-36.221-32-72-32S0,10.992,0,32v96c0,21.008,36.221,32,72,32,.2,0,.407,0,.608,0A63.988,63.988,0,1,0,144,66.025ZM72,16c36.376,0,56,11.356,56,16S108.376,48,72,48,16,36.644,16,32,35.624,16,72,16ZM16,52.849C29.892,60.214,51.016,64,72,64s42.108-3.786,56-11.151V64A63.707,63.707,0,0,0,86.5,79.334C81.765,79.767,76.9,80,72,80,35.624,80,16,68.644,16,64Zm0,32C29.892,92.214,51.016,96,72,96c.2,0,.41-.007.615-.008a63.591,63.591,0,0,0-6.559,15.9C33.5,110.744,16,100.384,16,96ZM16,128V116.849c12.125,6.428,29.76,10.124,48.005,10.96,0,.064,0,.127,0,.191a63.917,63.917,0,0,0,2,15.89C33.475,142.732,16,132.381,16,128Zm112,48a48,48,0,1,1,48-48A48.054,48.054,0,0,1,128,176Z"/>
    <path d="M136,88H120v8a16.019,16.019,0,0,0-16,16v8a16.019,16.019,0,0,0,16,16h16v8H104v16h16v8h16v-8a16.019,16.019,0,0,0,16-16v-8a16.019,16.019,0,0,0-16-16H120v-8h32V96H136Z"/>
</svg>