<svg viewBox="0 0 512 512" xmlns="http://www.w3.org/2000/svg">
    <path d="m492 80h-472c-10.692 0-20 8.693-20 20v312c0 11.046 8.954 20 20 20h472c11.046 0 20-8.954 20-20v-312c0-11.227-9.26-20-20-20zm-39.795 40-86.258 116h-53.387c-8.256-23.278-30.487-40-56.56-40s-48.303 16.722-56.56 40h-53.389l-86.256-116zm-176.205 136c0 11.028-8.972 20-20 20s-20-8.972-20-20 8.972-20 20-20 20 8.972 20 20zm196 136h-432v-231.586l79.951 107.521c3.774 5.074 9.725 8.065 16.049 8.065h63.44c8.256 23.278 30.487 40 56.56 40s48.303-16.722 56.56-40h63.439c6.324 0 12.275-2.991 16.049-8.066l79.952-107.521z"/>
</svg>