<svg xmlns="http://www.w3.org/2000/svg" viewBox="0 0 330 330">
    <path d="M315,75.538h-26.792c2.212-5.548,3.379-11.517,3.379-17.669c0-12.737-4.96-24.713-13.968-33.723
        c-9.008-9.008-20.983-13.969-33.721-13.969c-12.738,0-24.714,4.961-33.72,13.969L165,69.322l-45.178-45.175
        c-9.007-9.009-20.983-13.97-33.72-13.97c-12.737,0-24.713,4.96-33.724,13.971c-13.867,13.87-17.383,34.226-10.564,51.39H15
        c-8.284,0-15,6.716-15,15v214.285c0,8.284,6.716,15,15,15h300c8.284,0,15-6.716,15-15V90.538C330,82.253,323.284,75.538,315,75.538z
        M231.393,45.358c3.341-3.341,7.782-5.181,12.506-5.181c4.724,0,9.165,1.84,12.506,5.181c3.343,3.343,5.183,7.786,5.183,12.511
        c0,4.724-1.84,9.165-5.184,12.509c-3.327,3.327-7.762,5.16-12.488,5.16l-0.239-0.002c-0.067-0.001-0.134-0.001-0.2-0.001h-42.261
        L231.393,45.358z M73.593,70.375c-6.896-6.896-6.895-18.118,0-25.015c3.343-3.343,7.785-5.183,12.509-5.183
        c4.723,0,9.165,1.84,12.506,5.182l30.177,30.176h-42.26c-0.066,0-0.133,0-0.2,0.001l-0.24,0.002
        C81.358,75.538,76.922,73.705,73.593,70.375z M128.783,105.538L98.608,135.71c-5.858,5.857-5.858,15.355,0,21.213
        c2.929,2.93,6.768,4.394,10.607,4.394c3.838,0,7.678-1.465,10.606-4.394L165,111.748l45.179,45.176
        c2.929,2.93,6.768,4.394,10.607,4.394c3.839,0,7.678-1.465,10.606-4.394c5.858-5.858,5.857-15.355,0-21.213l-30.175-30.173H300
        v98.571H30v-98.571H128.783z M30,289.823v-55.714h270v55.714H30z"/>
</svg>