<svg xmlns="http://www.w3.org/2000/svg" viewBox="0 0 512 512">
    <circle cx="256" cy="196" r="25"/>
    <circle cx="188.5" cy="256" r="25"/>
    <circle cx="323.5" cy="256" r="25"/>
    <circle cx="121" cy="196" r="25"/>
    <circle cx="391" cy="196" r="25"/>
    <path d="M391,316H121c-11.046,0-20,8.954-20,20c0,11.046,8.954,20,20,20h270c11.046,0,20-8.954,20-20
        C411,324.954,402.046,316,391,316z"/>
    <path d="M452,86H60c-33.084,0-60,26.916-60,60v220c0,33.084,26.916,60,60,60h392c33.084,0,60-26.916,60-60V146
        C512,112.916,485.084,86,452,86z M472,366c0,11.028-8.972,20-20,20H60c-11.028,0-20-8.972-20-20V146c0-11.028,8.972-20,20-20h392
        c11.028,0,20,8.972,20,20V366z"/>
</svg>