 <svg version="1.0" xmlns="http://www.w3.org/2000/svg" width="700.000000pt" height="700.000000pt" viewBox="0 0 700.000000 700.000000" preserveAspectRatio="xMidYMid meet">
<metadata>
Created by potrace 1.12, written by Peter Selinger 2001-2015
</metadata>
<g transform="translate(0.000000,700.000000) scale(0.100000,-0.100000)" fill="#000000" stroke="none">
<path d="M1600 5962 c-36 -21 -90 -52 -120 -68 -30 -17 -179 -100 -330 -184
-151 -84 -300 -166 -330 -183 -30 -17 -127 -71 -215 -120 -88 -49 -230 -128
-315 -175 -235 -130 -291 -163 -288 -170 2 -4 16 -27 31 -52 15 -25 109 -182
209 -350 100 -168 183 -307 184 -309 2 -2 77 38 166 90 90 51 345 198 568 325
l405 232 3 -2009 2 -2009 445 0 445 0 0 2510 0 2510 -397 0 -398 0 -65 -38z"></path>
<path d="M5060 5768 c-85 -127 -239 -356 -342 -509 -437 -651 -772 -1150 -923
-1374 -89 -132 -273 -406 -410 -610 -137 -203 -295 -439 -352 -523 l-103 -154
2 -281 3 -282 1247 -3 1248 -2 2 -523 3 -522 437 -3 438 -2 2 522 3 523 338 3
337 2 0 355 0 355 -337 2 -338 3 -5 750 -5 750 -435 0 -435 0 -3 -752 -2 -753
-721 0 c-599 0 -720 2 -716 13 3 8 57 90 119 183 63 93 208 309 323 479 115
171 281 418 370 550 89 132 242 359 340 505 98 146 233 346 300 445 67 99 242
360 390 580 147 220 273 407 280 415 6 8 22 32 34 53 l23 37 -479 0 -478 -1
-155 -231z"></path>
</g>
</svg>