 <svg version="1.0" xmlns="http://www.w3.org/2000/svg" width="700.000000pt" height="700.000000pt" viewBox="0 0 700.000000 700.000000" preserveAspectRatio="xMidYMid meet">
<metadata>
Created by potrace 1.12, written by Peter Selinger 2001-2015
</metadata>
<g transform="translate(0.000000,700.000000) scale(0.100000,-0.100000)" fill="#000000" stroke="none">
<path d="M4798 6064 c-573 -59 -1028 -330 -1296 -771 -85 -140 -151 -318 -194
-518 -21 -102 -23 -133 -23 -430 0 -290 2 -331 23 -436 54 -277 145 -487 298
-685 294 -381 805 -579 1373 -535 388 31 698 151 921 358 33 31 63 53 67 50 7
-7 -24 -340 -39 -412 -51 -254 -77 -343 -140 -477 -127 -267 -294 -401 -588
-470 -136 -32 -464 -31 -655 1 -233 40 -432 107 -621 212 l-71 39 -98 -223
c-54 -122 -111 -250 -127 -284 -15 -34 -28 -63 -28 -66 0 -3 -16 -39 -36 -81
-19 -42 -33 -80 -29 -85 14 -23 219 -129 335 -174 182 -69 323 -104 580 -144
167 -26 675 -26 840 0 220 35 424 91 560 154 196 91 422 284 548 471 63 91
162 273 187 341 8 20 23 61 35 91 113 291 184 656 215 1104 21 303 21 1036 0
1247 -24 237 -79 514 -129 646 -53 139 -73 188 -112 264 -114 222 -279 413
-463 538 -72 49 -228 133 -301 161 -276 109 -669 152 -1032 114z m502 -809
c326 -57 537 -242 621 -545 47 -171 49 -488 5 -659 -77 -294 -279 -485 -596
-562 -82 -20 -121 -23 -290 -23 -247 -1 -353 19 -505 95 -180 89 -286 221
-343 429 -39 140 -52 370 -31 558 43 394 277 640 669 706 116 19 363 20 470 1z"></path>
<path d="M1665 5934 c-66 -36 -163 -90 -215 -119 -52 -29 -113 -63 -135 -75
-22 -12 -242 -135 -490 -273 -247 -137 -479 -266 -515 -287 -36 -20 -95 -53
-132 -74 -65 -35 -67 -38 -54 -59 7 -12 100 -168 206 -347 106 -179 198 -331
205 -338 9 -10 40 4 156 71 79 46 169 98 199 115 30 17 219 125 420 240 l365
209 3 -2009 2 -2008 445 0 445 0 0 2510 0 2510 -393 0 -392 0 -120 -66z"></path>
</g>
</svg>