<svg xmlns="http://www.w3.org/2000/svg" viewBox="0 0 512 512">
    <circle cx="256" cy="311" r="25"/>
    <path d="M416,441H96c-11.046,0-20,8.954-20,20c0,11.046,8.954,20,20,20h320c11.046,0,20-8.954,20-20
        C436,449.954,427.046,441,416,441z"/>
    <path d="M452,31H60C26.916,31,0,57.916,0,91v260c0,33.084,26.916,60,60,60h392c33.084,0,60-26.916,60-60V91
        C512,57.916,485.084,31,452,31z M472,351c0,11.028-8.972,20-20,20H60c-11.028,0-20-8.972-20-20V91c0-11.028,8.972-20,20-20h392
        c11.028,0,20,8.972,20,20V351z"/>
</svg>