<svg viewBox="0 0 512 512" xmlns="http://www.w3.org/2000/svg">
    <path d="m256 512c-.003906 0 .003906 0-.003906 0-5.304688 0-10.390625-2.105469-14.140625-5.859375l-235.996094-236c-3.753906-3.75-5.859375-8.835937-5.859375-14.140625 0-68.378906 26.628906-132.667969 74.980469-181.019531 7.808593-7.8125 20.472656-7.808594 28.285156 0l82.023437 82.023437c7.804688 7.804688 7.808594 20.476563 0 28.285156-16.996093 16.996094-27.121093 39.03125-28.980468 62.738282l107.664062 107.660156c23.707032-1.859375 45.742188-11.980469 62.738282-28.976562 7.808593-7.8125 20.472656-7.8125 28.28125 0l82.027343 82.023437c7.808594 7.808594 7.808594 20.472656 0 28.28125-48.347656 48.351563-112.640625 74.984375-181.019531 74.984375zm-215.851562-264.136719 223.984374 223.988281c47.96875-1.765624 93.1875-19.109374 129.816407-49.617187l-54.09375-54.09375c-24.074219 18.082031-53.210938 27.859375-83.855469 27.859375-5.304688 0-10.390625-2.105469-14.140625-5.859375l-120-120c-3.753906-3.75-5.859375-8.835937-5.859375-14.140625 0-30.644531 9.777344-59.78125 27.859375-83.855469l-54.09375-54.09375c-30.507813 36.628907-47.851563 81.847657-49.617187 129.8125zm208.199218 26.613281c-7.476562-3.09375-12.347656-10.386718-12.347656-18.476562v-236c0-11.046875 8.953125-20 20-20h236c11.046875 0 20 8.953125 20 20v160c0 11.046875-8.953125 20-20 20h-151.714844l-70.144531 70.140625c-5.71875 5.722656-14.320313 7.433594-21.792969 4.335937zm27.652344-234.476562v167.714844l41.855469-41.855469c3.753906-3.753906 8.839843-5.859375 14.144531-5.859375h140v-120zm133 35c-13.808594 0-25 11.191406-25 25s11.191406 25 25 25 25-11.191406 25-25-11.191406-25-25-25zm-70 0c-13.808594 0-25 11.191406-25 25s11.191406 25 25 25 25-11.191406 25-25-11.191406-25-25-25zm0 0"/>
</svg>