 <svg version="1.0" xmlns="http://www.w3.org/2000/svg" width="700.000000pt" height="700.000000pt" viewBox="0 0 700.000000 700.000000" preserveAspectRatio="xMidYMid meet">
<metadata>
Created by potrace 1.12, written by Peter Selinger 2001-2015
</metadata>
<g transform="translate(0.000000,700.000000) scale(0.100000,-0.100000)" fill="#000000" stroke="none">
<path d="M5153 6960 c-189 -40 -278 -169 -275 -400 1 -52 5 -187 11 -300 12
-271 4 -315 -61 -313 -51 1 -69 11 -298 174 -118 84 -242 166 -275 183 -56 29
-67 31 -165 31 -89 0 -111 -3 -145 -22 -174 -94 -266 -302 -210 -474 25 -75
78 -152 133 -192 26 -19 148 -90 272 -157 124 -67 240 -134 259 -148 72 -54
77 -141 11 -202 -20 -19 -127 -82 -235 -140 -231 -122 -295 -166 -351 -241
-71 -94 -87 -140 -82 -234 4 -70 9 -90 43 -153 44 -81 111 -154 170 -185 28
-15 65 -22 126 -25 137 -7 211 21 381 144 51 37 142 103 201 145 134 97 193
117 212 71 19 -44 22 -109 14 -276 -14 -266 -13 -363 6 -430 35 -132 114 -225
221 -261 70 -24 207 -27 269 -6 105 35 183 113 227 227 26 66 28 148 18 561
-4 151 -2 205 7 214 25 25 89 -11 300 -169 254 -191 299 -213 435 -220 88 -4
101 -2 155 22 69 32 102 62 152 136 57 85 73 129 79 208 4 68 2 77 -31 145
-53 108 -130 179 -282 262 -38 21 -119 65 -180 98 -150 82 -176 99 -213 141
-86 98 -34 142 472 405 203 106 295 286 240 472 -25 84 -52 129 -114 189 -72
72 -142 100 -246 100 -112 0 -167 -27 -399 -196 -211 -154 -264 -188 -306
-198 -70 -16 -81 45 -67 359 12 278 8 361 -21 429 -65 149 -172 222 -336 231
-44 2 -99 0 -122 -5z"></path>
</g>
</svg>