<svg xmlns="http://www.w3.org/2000/svg" viewBox="0 0 700.000000 700.000000">
    <g transform="translate(0.000000,700.000000) scale(0.100000,-0.100000)" fill="#000000" stroke="none">
    <path d="M3419 6977 c-25 -7 -58 -23 -75 -34 -16 -12 -766 -759 -1666 -1660
        -1603 -1605 -1637 -1639 -1652 -1692 -20 -69 -20 -113 0 -182 15 -53 49 -87
        1657 -1697 963 -964 1661 -1654 1687 -1670 61 -36 181 -39 250 -5 33 17 480
        458 1691 1670 1357 1358 1649 1655 1660 1688 21 64 17 172 -9 225 -30 63
        -3290 3322 -3345 3345 -52 22 -144 27 -198 12z m1411 -2152 l1325 -1325 -1328
        -1328 -1327 -1327 -1327 1327 -1328 1328 1325 1325 c729 729 1327 1325 1330
        1325 3 0 601 -596 1330 -1325z"></path>
	</g>
</svg>