 <svg version="1.0" xmlns="http://www.w3.org/2000/svg" width="700.000000pt" height="700.000000pt" viewBox="0 0 700.000000 700.000000" preserveAspectRatio="xMidYMid meet">
<metadata>
Created by potrace 1.12, written by Peter Selinger 2001-2015
</metadata>
<g transform="translate(0.000000,700.000000) scale(0.100000,-0.100000)" fill="#000000" stroke="none">
<path d="M795 6824 c-99 -15 -231 -56 -305 -96 -100 -53 -231 -167 -309 -268
-31 -41 -121 -223 -121 -246 0 -11 -8 -39 -17 -64 -24 -65 -24 -335 0 -400 9
-25 17 -53 17 -64 0 -38 99 -216 161 -292 115 -139 280 -244 464 -296 114 -32
315 -31 430 1 166 48 286 116 402 231 171 168 257 376 257 620 0 274 -113 513
-322 681 -86 69 -231 143 -335 170 -70 19 -260 32 -322 23z"></path>
<path d="M5995 6824 c-207 -34 -399 -134 -536 -280 -36 -38 -139 -186 -139
-199 0 -3 -11 -30 -24 -58 -39 -86 -68 -230 -68 -337 0 -107 29 -251 68 -337
13 -28 24 -54 24 -58 0 -3 8 -18 19 -33 10 -15 34 -52 54 -82 61 -91 196 -209
307 -268 44 -23 143 -60 210 -78 101 -27 300 -25 410 5 194 52 331 140 485
315 29 32 108 175 120 216 4 14 13 39 20 55 44 104 44 428 0 530 -7 17 -16 41
-20 55 -8 29 -48 105 -87 170 -37 60 -168 192 -235 236 -73 49 -184 99 -274
124 -73 21 -267 34 -334 24z"></path>
<path d="M793 2666 c-88 -22 -164 -65 -233 -135 -96 -97 -141 -197 -147 -326
-7 -141 15 -209 130 -389 47 -76 85 -133 102 -156 11 -15 29 -40 40 -56 11
-16 68 -89 128 -162 243 -296 544 -556 880 -760 427 -261 868 -414 1402 -489
197 -27 655 -25 860 5 402 57 708 149 1065 319 513 244 940 597 1316 1090 31
40 158 233 178 268 9 17 21 37 26 45 24 38 52 118 61 173 30 184 -54 382 -208
490 -246 173 -571 101 -734 -164 -82 -132 -113 -177 -204 -296 -70 -93 -281
-306 -381 -386 -180 -144 -449 -301 -654 -381 -719 -280 -1524 -215 -2180 177
-219 131 -405 283 -563 459 -145 162 -186 217 -296 393 -35 55 -84 122 -109
148 -117 121 -308 174 -479 133z"></path>
</g>
</svg>