 <svg version="1.0" xmlns="http://www.w3.org/2000/svg" width="700.000000pt" height="700.000000pt" viewBox="0 0 700.000000 700.000000" preserveAspectRatio="xMidYMid meet">
<metadata>
Created by potrace 1.12, written by Peter Selinger 2001-2015
</metadata>
<g transform="translate(0.000000,700.000000) scale(0.100000,-0.100000)" fill="#000000" stroke="none">
<path d="M490 6990 c-225 -29 -406 -189 -468 -413 -16 -57 -17 -154 -17 -1202
0 -1078 1 -1143 18 -1199 61 -198 195 -332 393 -393 56 -17 122 -18 1209 -18
l1150 0 78 28 c178 62 292 177 355 354 l27 78 0 1150 c0 1087 -1 1153 -18
1209 -60 195 -190 326 -387 392 -52 18 -114 19 -1170 20 -613 1 -1140 -2
-1170 -6z m2064 -614 c23 -13 51 -42 64 -64 l22 -40 0 -892 0 -892 -22 -40
c-14 -24 -41 -51 -67 -66 l-45 -26 -885 0 -886 -1 -43 25 c-26 15 -54 42 -68
66 l-24 41 0 894 0 894 24 39 c13 21 41 49 62 62 l39 24 894 0 894 0 41 -24z"></path>
<path d="M4250 6990 c-222 -29 -398 -182 -467 -406 -17 -56 -18 -122 -18
-1209 l0 -1150 27 -78 c63 -177 177 -292 355 -354 l78 -28 1150 0 c1087 0
1153 1 1209 18 198 61 332 195 393 393 17 56 18 121 18 1199 0 1048 -1 1145
-17 1202 -54 194 -188 332 -388 399 -52 18 -114 19 -1170 20 -613 1 -1140 -2
-1170 -6z m2048 -604 c31 -16 74 -61 91 -93 8 -16 11 -274 11 -913 l0 -892
-22 -40 c-14 -24 -41 -51 -67 -66 l-45 -26 -885 0 -886 -1 -43 25 c-26 15 -54
42 -68 66 l-24 41 0 894 0 894 24 39 c13 21 41 49 62 62 l39 24 893 0 c749 0
897 -2 920 -14z"></path>
<path d="M222 3224 c-130 -35 -222 -152 -222 -284 0 -109 84 -231 186 -269 54
-21 68 -21 1433 -21 1538 0 1428 -5 1515 71 161 142 120 401 -78 491 l-51 23
-1365 2 c-1161 2 -1373 0 -1418 -13z"></path>
<path d="M4003 3230 c-186 -38 -291 -246 -209 -414 15 -30 47 -73 72 -95 87
-76 -23 -71 1515 -71 1365 0 1379 0 1433 21 74 27 146 105 171 184 46 147 -36
311 -183 366 -31 11 -268 14 -1397 15 -748 1 -1379 -2 -1402 -6z"></path>
<path d="M174 1896 c-61 -28 -115 -82 -146 -145 -31 -63 -32 -176 -2 -242 28
-60 84 -115 148 -145 l51 -24 1395 0 1395 0 50 24 c104 49 168 150 168 266 0
111 -52 199 -153 258 l-45 27 -1405 2 -1405 3 -51 -24z"></path>
<path d="M3959 1906 c-198 -70 -257 -327 -111 -480 20 -21 60 -49 87 -62 l50
-24 1395 0 1395 0 51 24 c64 30 120 85 148 145 30 66 29 179 -2 242 -31 63
-85 117 -146 145 l-51 24 -1390 -1 c-1110 0 -1397 -2 -1426 -13z"></path>
<path d="M203 591 c-66 -23 -118 -62 -153 -118 -96 -151 -43 -339 120 -424
l45 -24 1405 0 1405 0 42 23 c95 50 153 131 167 232 14 95 -41 218 -123 275
-83 57 -29 55 -1501 55 -1274 -1 -1358 -2 -1407 -19z"></path>
<path d="M3978 596 c-100 -27 -175 -106 -203 -213 -35 -134 27 -265 158 -335
l42 -23 1405 0 1405 0 45 24 c62 32 107 77 138 136 22 41 27 63 27 125 0 123
-56 214 -163 267 l-57 28 -1375 2 c-1087 1 -1385 -1 -1422 -11z"></path>
</g>
</svg>