 <svg version="1.0" xmlns="http://www.w3.org/2000/svg" width="700.000000pt" height="700.000000pt" viewBox="0 0 700.000000 700.000000" preserveAspectRatio="xMidYMid meet">
<metadata>
Created by potrace 1.12, written by Peter Selinger 2001-2015
</metadata>
<g transform="translate(0.000000,700.000000) scale(0.100000,-0.100000)" fill="#000000" stroke="none">
<path d="M490 6990 c-225 -29 -406 -189 -468 -413 -16 -57 -17 -154 -17 -1202
0 -1078 1 -1143 18 -1199 61 -198 195 -332 393 -393 56 -17 122 -18 1209 -18
l1150 0 78 28 c178 62 292 177 355 354 l27 78 0 1150 c0 1087 -1 1153 -18
1209 -60 195 -190 326 -387 392 -52 18 -114 19 -1170 20 -613 1 -1140 -2
-1170 -6z m2064 -614 c23 -13 51 -42 64 -64 l22 -40 0 -892 0 -892 -22 -40
c-14 -24 -41 -51 -67 -66 l-45 -26 -885 0 -886 -1 -43 25 c-26 15 -54 42 -68
66 l-24 41 0 894 0 894 24 39 c13 21 41 49 62 62 l39 24 894 0 894 0 41 -24z"></path>
<path d="M3972 6985 c-100 -31 -172 -109 -198 -218 -15 -58 -15 -69 0 -126 30
-117 110 -198 220 -221 36 -8 450 -10 1421 -8 l1370 3 51 27 c95 50 164 160
164 263 0 114 -84 233 -193 274 l-58 21 -1367 -1 c-1118 0 -1375 -3 -1410 -14z"></path>
<path d="M3995 5681 c-182 -45 -282 -250 -201 -415 29 -60 73 -103 139 -138
l42 -23 1390 -3 c1554 -3 1442 -8 1530 70 70 62 99 126 100 218 0 123 -56 214
-163 267 l-57 28 -1375 2 c-756 0 -1388 -2 -1405 -6z"></path>
<path d="M3967 4356 c-126 -45 -200 -147 -200 -277 0 -116 64 -218 171 -271
l47 -23 1395 0 1395 0 57 28 c107 53 163 144 163 267 -1 92 -30 156 -101 219
-86 76 13 71 -1518 71 -1127 -1 -1378 -3 -1409 -14z"></path>
<path d="M490 3230 c-222 -29 -398 -182 -467 -406 -17 -56 -18 -121 -18 -1199
0 -1048 1 -1145 17 -1202 55 -197 194 -338 394 -400 56 -17 121 -18 1204 -18
1083 0 1148 1 1204 18 198 61 332 195 393 393 17 56 18 122 18 1209 l0 1150
-28 78 c-64 183 -185 299 -377 363 -52 18 -114 19 -1170 20 -613 1 -1140 -2
-1170 -6z m2065 -615 c22 -13 50 -41 63 -63 l22 -40 0 -892 0 -893 -24 -41
c-13 -23 -42 -51 -64 -64 l-40 -22 -892 0 c-887 0 -893 0 -930 21 -20 11 -49
39 -63 62 l-27 41 0 894 0 894 22 40 c43 75 66 82 298 89 113 4 518 4 900 2
l695 -4 40 -24z"></path>
<path d="M4003 3230 c-186 -38 -291 -246 -209 -414 15 -30 47 -73 72 -95 87
-76 -23 -71 1515 -71 1365 0 1379 0 1433 21 74 27 146 105 171 184 46 147 -36
311 -183 366 -31 11 -268 14 -1397 15 -748 1 -1379 -2 -1402 -6z"></path>
<path d="M3959 1906 c-198 -70 -257 -327 -111 -480 20 -21 60 -49 87 -62 l50
-24 1395 0 1395 0 51 24 c64 30 120 85 148 145 30 66 29 179 -2 242 -31 63
-85 117 -146 145 l-51 24 -1390 -1 c-1110 0 -1397 -2 -1426 -13z"></path>
<path d="M3978 596 c-100 -27 -175 -106 -203 -213 -35 -134 27 -265 158 -335
l42 -23 1405 0 1405 0 45 24 c62 32 107 77 138 136 22 41 27 63 27 125 0 123
-56 214 -163 267 l-57 28 -1375 2 c-1087 1 -1385 -1 -1422 -11z"></path>
</g>
</svg>