 <svg version="1.0" xmlns="http://www.w3.org/2000/svg" width="700.000000pt" height="700.000000pt" viewBox="0 0 700.000000 700.000000" preserveAspectRatio="xMidYMid meet">
<metadata>
Created by potrace 1.12, written by Peter Selinger 2001-2015
</metadata>
<g transform="translate(0.000000,700.000000) scale(0.100000,-0.100000)" fill="#000000" stroke="none">
<path d="M490 6990 c-225 -29 -406 -189 -468 -413 -16 -57 -17 -154 -17 -1202
0 -1078 1 -1143 18 -1199 61 -198 195 -332 393 -393 56 -17 122 -18 1209 -18
l1150 0 78 28 c178 62 292 177 355 354 l27 78 0 1150 c0 1087 -1 1153 -18
1209 -60 195 -190 326 -387 392 -52 18 -114 19 -1170 20 -613 1 -1140 -2
-1170 -6z m2064 -614 c23 -13 51 -42 64 -64 l22 -40 0 -892 0 -892 -22 -40
c-14 -24 -41 -51 -67 -66 l-45 -26 -885 0 -886 -1 -43 25 c-26 15 -54 42 -68
66 l-24 41 0 894 0 894 24 39 c13 21 41 49 62 62 l39 24 894 0 894 0 41 -24z"></path>
<path d="M4250 6990 c-222 -29 -398 -182 -467 -406 -17 -56 -18 -122 -18
-1209 l0 -1150 27 -78 c63 -177 177 -292 355 -354 l78 -28 1150 0 c1087 0
1153 1 1209 18 198 61 332 195 393 393 17 56 18 121 18 1199 0 1048 -1 1145
-17 1202 -54 194 -188 332 -388 399 -52 18 -114 19 -1170 20 -613 1 -1140 -2
-1170 -6z m2048 -604 c31 -16 74 -61 91 -93 8 -16 11 -274 11 -913 l0 -892
-22 -40 c-14 -24 -41 -51 -67 -66 l-45 -26 -885 0 -886 -1 -43 25 c-26 15 -54
42 -68 66 l-24 41 0 894 0 894 24 39 c13 21 41 49 62 62 l39 24 893 0 c749 0
897 -2 920 -14z"></path>
<path d="M490 3230 c-222 -29 -398 -182 -467 -406 -17 -56 -18 -121 -18 -1199
0 -1048 1 -1145 17 -1202 55 -197 194 -338 394 -400 56 -17 121 -18 1204 -18
1083 0 1148 1 1204 18 198 61 332 195 393 393 17 56 18 122 18 1209 l0 1150
-28 78 c-64 183 -185 299 -377 363 -52 18 -114 19 -1170 20 -613 1 -1140 -2
-1170 -6z m2065 -615 c22 -13 50 -41 63 -63 l22 -40 0 -892 0 -893 -24 -41
c-13 -23 -42 -51 -64 -64 l-40 -22 -892 0 c-887 0 -893 0 -930 21 -20 11 -49
39 -63 62 l-27 41 0 894 0 894 22 40 c43 75 66 82 298 89 113 4 518 4 900 2
l695 -4 40 -24z"></path>
<path d="M4250 3230 c-160 -21 -311 -115 -396 -247 -19 -28 -46 -87 -61 -130
l-28 -78 0 -1150 c0 -1087 1 -1153 18 -1209 61 -198 195 -332 393 -393 56 -17
121 -18 1204 -18 1083 0 1148 1 1204 18 200 62 339 203 394 400 16 57 17 154
17 1202 0 1078 -1 1143 -18 1199 -60 195 -190 326 -387 392 -52 18 -114 19
-1170 20 -613 1 -1140 -2 -1170 -6z m2064 -614 c23 -13 51 -41 64 -64 l22 -40
0 -891 c0 -748 -2 -896 -14 -919 -16 -31 -61 -74 -93 -91 -16 -8 -274 -11
-913 -11 l-892 0 -40 22 c-22 13 -51 41 -64 64 l-24 41 0 893 0 892 22 40 c43
76 65 82 303 89 116 3 520 5 899 3 l688 -3 42 -25z"></path>
</g>
</svg>