 <svg version="1.0" xmlns="http://www.w3.org/2000/svg" width="700.000000pt" height="653.000000pt" viewBox="0 0 700.000000 653.000000" preserveAspectRatio="xMidYMid meet">
<metadata>
Created by potrace 1.12, written by Peter Selinger 2001-2015
</metadata>
<g transform="translate(0.000000,653.000000) scale(0.100000,-0.100000)" fill="#000000" stroke="none">
<path d="M3481 6518 c-88 -24 -177 -119 -291 -312 -195 -326 -543 -917 -751
-1274 -128 -218 -237 -403 -244 -410 -6 -7 -393 -81 -931 -177 -505 -90 -944
-171 -974 -180 -128 -39 -233 -128 -265 -226 -23 -69 -16 -158 18 -225 35 -68
345 -411 1017 -1123 436 -462 422 -445 415 -473 -3 -13 -23 -153 -45 -313
-192 -1416 -197 -1467 -154 -1590 25 -71 111 -156 184 -181 69 -24 184 -24
262 -1 31 9 280 121 555 248 274 127 584 271 688 319 105 49 272 126 372 173
l183 85 272 -130 c801 -382 1437 -681 1492 -699 70 -24 188 -29 252 -11 141
41 224 169 225 347 0 84 -59 566 -162 1329 l-61 449 50 51 c79 82 580 622 798
861 593 648 595 651 602 776 4 56 0 76 -23 128 -33 73 -103 142 -179 177 -71
32 -96 37 -1076 214 -459 83 -845 154 -857 157 -17 4 -89 122 -299 486 -450
780 -743 1277 -795 1348 -105 142 -196 200 -278 177z m117 -1176 c717 -1243
694 -1203 769 -1280 57 -58 88 -80 155 -111 94 -44 51 -35 893 -187 325 -58
593 -109 597 -113 6 -6 -354 -401 -785 -861 -245 -260 -296 -327 -326 -424
-37 -121 -36 -163 18 -551 53 -378 121 -903 121 -929 0 -11 -22 -5 -92 28
-103 48 -557 264 -943 448 -137 66 -277 128 -309 139 -82 28 -204 35 -291 16
-81 -17 -83 -18 -843 -371 -316 -146 -578 -266 -583 -266 -4 0 -6 12 -4 28 3
15 16 115 30 222 13 107 40 312 60 455 70 509 75 549 75 624 0 90 -18 162 -60
248 -24 48 -75 109 -218 261 -192 203 -531 564 -751 800 -68 73 -122 135 -119
137 2 3 181 36 396 75 1107 198 1065 189 1167 251 85 51 163 140 242 274 605
1035 712 1215 721 1215 4 -1 40 -58 80 -128z"></path>
</g>
</svg>