<svg xmlns="http://www.w3.org/2000/svg" viewBox="0 0 1280.000000 1280.000000">
    <g transform="translate(0.000000,1280.000000) scale(0.100000,-0.100000)"
        fill="#000000" stroke="none">
    <path d="M3315 9593 c-641 -58 -1274 -321 -1770 -737 -95 -80 -290 -273 -374
        -371 -398 -463 -647 -1008 -743 -1620 -29 -188 -36 -615 -14 -815 32 -278 103
        -566 202 -819 107 -271 295 -596 478 -826 105 -132 384 -410 516 -514 451
        -357 968 -579 1555 -668 114 -17 280 -18 3225 -18 3338 0 3156 -3 3430 51 454
        90 915 294 1280 566 183 137 384 324 529 493 419 487 683 1090 756 1725 20
        178 20 542 0 720 -73 635 -337 1238 -756 1725 -84 98 -278 291 -374 371 -97
        82 -242 188 -355 259 -143 90 -457 244 -613 300 -237 85 -528 150 -776 175
        -95 9 -6091 12 -6196 3z m6125 -1214 c897 -99 1606 -794 1735 -1701 19 -134
        19 -422 0 -556 -95 -667 -497 -1225 -1090 -1512 -288 -140 -559 -201 -891
        -201 -1005 0 -1827 715 -1969 1713 -19 134 -19 422 0 556 93 655 481 1203
        1061 1499 349 178 744 248 1154 202z"/>
    </g>
</svg>