<svg xmlns="http://www.w3.org/2000/svg" viewBox="0 0 700.000000 700.000000">
    <g transform="translate(0.000000,700.000000) scale(0.100000,-0.100000)" fill="#000000" stroke="none">
    <path d="M249 6410 c-64 -11 -118 -41 -165 -92 -81 -88 -75 106 -72 -2098 l3
        -1965 25 -48 c32 -64 84 -110 154 -136 51 -19 77 -21 271 -21 118 0 215 -2
        215 -4 0 -2 -15 -51 -34 -108 -91 -274 -70 -550 63 -806 187 -358 600 -579
        997 -533 320 37 581 195 753 457 101 154 150 312 158 507 7 149 -6 243 -48
        367 -16 47 -32 93 -35 103 -6 16 44 17 966 17 922 0 972 -1 966 -18 -3 -9 -19
        -55 -35 -102 -42 -124 -55 -218 -48 -367 8 -195 57 -353 158 -507 98 -149 220
        -260 373 -342 116 -61 211 -92 350 -111 100 -14 134 -15 220 -5 295 33 527
        158 702 376 137 171 210 365 221 587 7 134 -8 244 -53 377 -19 57 -34 106 -34
        108 0 2 100 4 223 4 l222 0 60 29 c68 32 103 66 137 131 l23 45 3 800 c2 723
        1 804 -14 845 -14 37 -96 125 -493 523 -341 343 -490 486 -526 505 l-50 27
        -477 3 -478 3 0 617 0 617 -24 50 c-29 62 -86 117 -151 147 l-50 23 -2215 1
        c-1218 1 -2236 -2 -2261 -6z m4126 -2175 l0 -1600 -1892 -3 -1893 -2 0 1605 0
        1605 1893 -2 1892 -3 0 -1600z m1682 -207 l353 -353 0 -522 0 -523 -725 0
        -725 0 0 875 0 875 372 0 373 0 352 -352z m-4342 -1994 c318 -82 436 -476 214
        -717 -107 -118 -269 -171 -418 -136 -123 28 -244 125 -301 242 -57 116 -53
        276 9 391 95 177 304 270 496 220z m3829 -13 c80 -28 160 -92 212 -168 53 -77
        65 -114 71 -224 6 -106 -10 -170 -66 -256 -157 -244 -494 -270 -691 -55 -190
        207 -137 530 111 675 102 60 245 71 363 28z"></path>
    </g>
</svg>