<svg xmlns="http://www.w3.org/2000/svg" viewBox="0 0 882.000000 882.000000">
    <g transform="translate(0.000000,882.000000) scale(0.100000,-0.100000)" fill="#000000" stroke="none">
        <path d="M4130 8799 c-768 -51 -1481 -288 -2123 -706 -215 -140 -372 -263
        -587 -459 -583 -534 -1012 -1232 -1239 -2014 -151 -525 -203 -1116 -146 -1664
        138 -1307 842 -2474 1930 -3201 262 -175 506 -304 795 -423 1014 -414 2189
        -427 3210 -35 1173 450 2091 1362 2540 2523 116 301 195 600 254 960 52 316
        56 815 10 1175 -103 809 -428 1579 -929 2202 -710 883 -1703 1449 -2815 1607
        -299 42 -607 54 -900 35z m564 -799 c454 -34 899 -158 1326 -371 569 -283
        1031 -694 1396 -1240 252 -377 439 -834 528 -1289 50 -258 61 -375 61 -690 0
        -307 -10 -425 -57 -670 -106 -565 -366 -1129 -725 -1576 l-65 -80 -166 167
        c-230 230 -424 379 -675 517 -97 54 -286 144 -360 172 l-29 10 54 47 c84 73
        214 210 293 308 702 873 711 2102 21 2984 -378 484 -942 809 -1561 897 -180
        26 -498 24 -681 -4 -262 -41 -509 -122 -750 -247 -688 -356 -1152 -1011 -1271
        -1795 -24 -159 -24 -501 0 -660 41 -270 115 -505 232 -735 140 -277 314 -512
        515 -695 55 -50 100 -93 101 -97 0 -3 -48 -27 -108 -53 -368 -160 -652 -356
        -949 -656 l-162 -162 -68 86 c-417 525 -671 1129 -761 1812 -25 189 -24 680 0
        860 50 357 125 642 248 942 421 1025 1312 1810 2383 2103 210 57 503 107 696
        118 134 8 406 6 534 -3z m-72 -1605 c349 -46 655 -196 907 -445 329 -323 497
        -745 478 -1200 -18 -413 -171 -768 -457 -1060 -279 -284 -610 -439 -1007 -472
        -853 -71 -1606 534 -1719 1382 -67 503 101 989 466 1350 353 349 837 510 1332
        445z m99 -3995 c750 -59 1307 -298 1738 -746 95 -99 110 -118 99 -131 -30 -37
        -340 -230 -499 -312 -553 -285 -1121 -415 -1739 -398 -470 13 -869 97 -1300
        274 -205 84 -552 280 -718 404 l-53 40 73 81 c409 455 1016 727 1753 786 159
        13 489 14 646 2z"/>
    </g>
</svg>
