<svg xmlns="http://www.w3.org/2000/svg" viewBox="0 112 780 780">
    <g transform="translate(0.000000,511.000000) scale(0.078000,-0.078000)">
        <path d="M2743.4,4958.8c-75.2-27.3-140.1-51.2-143.5-51.2c-3.4,0-47.8-58.1-95.7-126.4l-85.4-129.8V2410V168.8l78.6-116.2c150.3-228.9,194.7-235.8,1332.4-235.8H4848l-23.9-177.7c-30.7-252.8-170.8-686.7-310.9-966.9c-208.4-410-444.1-714.1-919-1175.3c-252.8-245.9-457.8-471.5-457.8-498.8c0-109.3,116.2-259.6,792.6-1007.9c594.5-659.4,710.6-768.7,799.5-779c92.2-10.2,157.2,30.7,410,242.6C6200.9-3661.1,6973-2468.8,7324.9-1177.3c232.4,850.7,228.9,775.5,242.6,3440.4l13.7,2432.6l-105.9,123c-61.5,68.3-164,136.7-232.3,157.2c-78.6,20.5-908.8,34.2-2244.7,34.2C3242.2,5006.6,2856.1,4999.8,2743.4,4958.8z"/>
    </g>
</svg>