<svg xmlns="http://www.w3.org/2000/svg" viewBox="0 300 2700 2700">
    <g transform="translate(0.000000,2986.000000) scale(0.090000,-0.090000)">
        <path d="M14495 28734 c-960 -29 -1809 -110 -2665 -255 -4117 -698 -7671
        -2757 -9810 -5684 -233 -319 -536 -794 -735 -1150 -1076 -1930 -1489 -4098
        -1185 -6216 425 -2959 2199 -5657 5017 -7632 399 -280 937 -614 1361 -846 72
        -40 132 -75 132 -79 0 -12 -629 -5675 -634 -5710 -4 -26 -2 -33 9 -29 7 3
        1297 904 2866 2002 l2852 1997 41 -7 c1213 -197 2062 -268 3186 -268 514 0
        798 9 1250 39 2584 170 5058 877 7202 2055 1633 898 3040 2061 4119 3404 1909
        2376 2693 5215 2223 8040 -186 1115 -580 2229 -1149 3250 -675 1211 -1601
        2328 -2735 3300 -2092 1793 -4819 3027 -7810 3534 -732 124 -1462 202 -2270
        241 -212 10 -1071 20 -1265 14z"/>
    </g>
</svg>