<svg xmlns="http://www.w3.org/2000/svg" viewBox="-70 -70 1000 1000">
    <g transform="translate(0.000000,860.000000) scale(0.100000,-0.100000)">
        <path d="M905 8563 c-79 -11 -199 -49 -284 -89 -246 -116 -428 -316 -520 -570 -60 -166 -56 67 -56 -3464 0 -3122 1 -3247 18 -3310 29 -102 66 -166 131 -229 254 -245 896 -824 935 -843 62 -31 186 -37 268 -13 136 39 140 43 682 598 370 379 523 529 569 558 83 53 190 95 330 130 242 61 146 59 2435 59 1283 0 2135 4 2202 10 131 12 231 38 341 89 273 128 471 364 552 659 l27 97 0 2340 0 2340 -22 81 c-42 159 -109 291 -207 408 -39 48 -875 828 -994 929 -120 102 -272 174 -437 208 -87 18 -197 19 -3015 17 -1609 0 -2938 -3 -2955 -5z m5940 -346 c122 -37 205 -86 296 -177 94 -94 133 -154 176 -275 l28 -80 0 -2305 0 -2305 -29 -88 c-67 -204 -226 -365 -430 -434 l-81 -28 -2215 -5 c-2452 -6 -2265 -1 -2548 -71 -192 -47 -343 -111 -464 -195 -38 -26 -255 -242 -560 -556 -493 -508 -533 -545 -594 -547 -40 -2 -39 -80 -39 3309 l0 3245 27 73 c39 108 84 177 168 262 106 106 234 170 382 189 34 5 1359 8 2943 7 2740 -1 2883 -2 2940 -19z"/>
        <path d="M2136 6454 c-169 -41 -306 -170 -359 -339 -22 -69 -22 -79 -22 -670 0 -555 1 -605 19 -668 23 -84 76 -167 149 -234 164 -149 413 -171 597 -53 66 42 152 137 184 202 55 112 57 148 54 787 -4 577 -4 587 -26 645 -32 85 -66 140 -125 199 -122 121 -303 172 -471 131z"/>
        <path d="M5263 6456 c-147 -36 -273 -140 -341 -283 l-37 -78 -3 -620 c-2 -448 0 -635 8 -675 52 -243 304 -417 553 -381 207 29 374 180 422 382 22 94 22 1183 0 1277 -64 271 -337 442 -602 378z"/>
    </g>
</svg>