<svg xmlns="http://www.w3.org/2000/svg" viewBox="0 0 512 512" style="fill:#fff;">
	<g transform="matrix(1,0,0,1,0,160)">
		<path d="M288,288h-64c-5.896,0-10.667,4.771-10.667,10.667v42.667c0,5.896,4.771,10.667,10.667,10.667h64 c5.896,0,10.667-4.771,10.667-10.667v-42.667C298.667,292.771,293.896,288,288,288z" />
		<path d="M394.667,288h-64c-5.896,0-10.667,4.771-10.667,10.667v42.667c0,5.896,4.771,10.667,10.667,10.667h64 c5.896,0,10.667-4.771,10.667-10.667v-42.667C405.333,292.771,400.563,288,394.667,288z" />
		<path d="M501.333,288h-64c-5.896,0-10.667,4.771-10.667,10.667v42.667c0,5.896,4.771,10.667,10.667,10.667h64 c5.896,0,10.667-4.771,10.667-10.667v-42.667C512,292.771,507.229,288,501.333,288z" />
		<path d="M181.333,160h-64c-5.896,0-10.667,4.771-10.667,10.667v170.667c0,5.896,4.771,10.667,10.667,10.667h64 c5.896,0,10.667-4.771,10.667-10.667V170.667C192,164.771,187.229,160,181.333,160z" />
		<path d="M74.667,224h-64C4.771,224,0,228.771,0,234.667v106.667C0,347.229,4.771,352,10.667,352h64 c5.896,0,10.667-4.771,10.667-10.667V234.667C85.333,228.771,80.563,224,74.667,224z" />
	</g>
</svg>
