<?xml version="1.0" encoding="iso-8859-1"?>
<!-- Generator: Adobe Illustrator 19.0.0, SVG Export Plug-In . SVG Version: 6.00 Build 0)  -->
<svg xmlns="http://www.w3.org/2000/svg" xmlns:xlink="http://www.w3.org/1999/xlink" version="1.1" id="Capa_1" x="0px" y="0px" viewBox="0 0 512 512" style="enable-background:new 0 0 512 512;" xml:space="preserve">
<path style="fill:#F7F7F7;" d="M359.622,512c-39.315,0-61.323-10.108-77.392-17.488c-8.04-3.693-13.849-6.361-18.915-6.361  s-10.875,2.668-18.916,6.361C228.33,501.892,206.323,512,167.008,512c-42.492,0-79.273-34.325-102.258-70.092  C34.925,395.5,18.5,334.095,18.5,269.006c0-47.867,9.041-86.468,26.871-114.73c20.656-32.74,52.825-50.045,93.029-50.045  c40.34,0,62.114,13.149,79.61,23.714c14.243,8.601,25.493,15.395,45.304,15.395c19.81,0,31.06-6.794,45.303-15.395  c17.496-10.565,39.27-23.714,79.61-23.714c34.888,0,63.06,12.53,83.733,37.24c6.484,7.751,3.59,19.587-5.736,23.472  c-37.483,15.616-61.704,51.952-61.704,92.569c0,48.452,33.975,87.52,77.377,97.628c8.479,1.974,13.495,10.735,10.929,19.038  C467.24,456.985,412.542,512,359.622,512z"/>
<g>
	<path style="fill:#E0E0E0;" d="M262.382,110.94c-6.86-0.828-12.266-6.235-13.094-13.095c-0.206-1.709-4.705-42.195,25.283-72.195   C304.562-4.352,345.04,0.148,346.746,0.355c6.86,0.828,12.267,6.235,13.094,13.095c0.207,1.709,4.705,42.195-25.283,72.195l0,0l0,0   C314.709,105.5,284.698,113.644,262.382,110.94z"/>
	<path style="fill:#E0E0E0;" d="M481.898,355.142c-43.402-10.109-77.377-49.176-77.377-97.628c0-40.618,24.22-76.954,61.703-92.569   c9.327-3.885,12.221-15.721,5.736-23.472c-20.673-24.711-48.844-37.24-83.733-37.24c-40.339,0-62.114,13.149-79.61,23.714   c-14.243,8.601-25.493,15.395-45.303,15.395v344.81c5.065,0,10.875,2.668,18.915,6.36c16.07,7.38,38.078,17.488,77.393,17.488   c52.92,0,107.618-55.015,133.205-137.82C495.393,365.877,490.377,357.115,481.898,355.142z"/>
</g>
<g>
</g>
<g>
</g>
<g>
</g>
<g>
</g>
<g>
</g>
<g>
</g>
<g>
</g>
<g>
</g>
<g>
</g>
<g>
</g>
<g>
</g>
<g>
</g>
<g>
</g>
<g>
</g>
<g>
</g>
</svg>
