<?xml version="1.0" encoding="iso-8859-1"?>
<!-- Generator: Adobe Illustrator 19.0.0, SVG Export Plug-In . SVG Version: 6.00 Build 0)  -->
<svg xmlns="http://www.w3.org/2000/svg" xmlns:xlink="http://www.w3.org/1999/xlink" version="1.1" id="Capa_1" x="0px" y="0px" viewBox="0 0 512 512" style="enable-background:new 0 0 512 512;" xml:space="preserve">
<path style="fill:#51CAF3;" d="M257.749,506.996c-88.405-16.092-151.983-70.757-176.65-141.071  c-10.83-30.87-13.584-63.639-7.964-94.765c6.111-33.918,19.021-62.818,38.37-85.894c24.018-28.644,57.266-47.329,98.82-55.539  c13.371-2.64,23.038,12.557,15.031,23.547c-12.748,17.498-21.101,36.922-23.933,55.129h145.604  c-2.573-25.357-11.816-46.459-27.113-61.61c-18.363-18.189-45.449-27.803-78.33-27.803c-127.197,0-192.695,103.111-193.342,104.152  c-7.939,12.784-27.743,7.115-27.743-7.912c0-29.223,8.086-57.978,24.033-85.469c14.531-25.049,34.87-47.904,60.451-67.93  C154.441,23.115,218.377,0,276.011,0c57.725,0,112.079,25.744,153.051,72.488c40.264,45.938,62.438,106.214,62.438,169.724v54.608  c0,8.284-6.716,14.999-15,14.999H200.478c25.386,85.074,137.945,64.235,222.8,36.784c9.686-3.133,19.617,4.107,19.617,14.271  v117.307c0,6.717-4.465,12.614-10.93,14.437C375.202,510.623,315.291,517.469,257.749,506.996z"/>
<g>
	<path style="fill:#3FA0E1;" d="M423.278,348.604c-47.105,15.239-102.74,28.428-147.268,22.605v138.519   c51.871,6.186,105.172-0.791,155.955-15.109c6.465-1.823,10.93-7.72,10.93-14.437V362.876   C442.895,352.711,432.964,345.471,423.278,348.604z"/>
	<path style="fill:#3FA0E1;" d="M429.062,72.488C388.09,25.744,333.735,0,276.011,0v123.001   c17.561,4.417,32.434,12.432,43.903,23.792c15.297,15.151,24.54,36.254,27.113,61.61H276.01V311.82h200.489c8.284,0,15-6.716,15-15   v-54.608C491.499,178.702,469.325,118.426,429.062,72.488z"/>
</g>
<g>
</g>
<g>
</g>
<g>
</g>
<g>
</g>
<g>
</g>
<g>
</g>
<g>
</g>
<g>
</g>
<g>
</g>
<g>
</g>
<g>
</g>
<g>
</g>
<g>
</g>
<g>
</g>
<g>
</g>
</svg>
