<?xml version="1.0" encoding="iso-8859-1"?>
<!-- Generator: Adobe Illustrator 19.0.0, SVG Export Plug-In . SVG Version: 6.00 Build 0)  -->
<svg xmlns="http://www.w3.org/2000/svg" xmlns:xlink="http://www.w3.org/1999/xlink" version="1.1" id="Capa_1" x="0px" y="0px" viewBox="0 0 512 512" style="enable-background:new 0 0 512 512;" xml:space="preserve">
<path style="fill:#51CAF3;" d="M256,0C114.508,0,0,114.497,0,256c0,141.493,114.497,256,256,256c141.492,0,256-114.497,256-256  C512,114.507,397.503,0,256,0z"/>
<path style="fill:#3FA0E1;" d="M256,0v512c141.492,0,256-114.497,256-256C512,114.507,397.503,0,256,0z"/>
<path style="fill:#F7F7F7;" d="M425,137.61H87c-8.284,0-15,6.716-15,15v205.6c0,8.284,6.716,15,15,15h76c8.284,0,15-6.716,15-15  v-114.6h156v114.6c0,8.284,6.716,15,15,15h76c8.284,0,15-6.716,15-15v-205.6C440,144.326,433.284,137.61,425,137.61z"/>
<path style="fill:#EEEEEE;" d="M294,268.607h-76c-8.284,0-15,6.716-15,15v74.607c0,8.284,6.716,15,15,15h76c8.284,0,15-6.716,15-15  v-74.607C309,275.323,302.284,268.607,294,268.607z"/>
<g>
	<path style="fill:#E0E0E0;" d="M425,137.61H256v106h78v114.6c0,8.284,6.716,15,15,15h76c8.284,0,15-6.716,15-15v-205.6   C440,144.326,433.284,137.61,425,137.61z"/>
	<path style="fill:#E0E0E0;" d="M294,268.607h-38v104.607h38c8.284,0,15-6.716,15-15v-74.607   C309,275.323,302.284,268.607,294,268.607z"/>
</g>
<g>
</g>
<g>
</g>
<g>
</g>
<g>
</g>
<g>
</g>
<g>
</g>
<g>
</g>
<g>
</g>
<g>
</g>
<g>
</g>
<g>
</g>
<g>
</g>
<g>
</g>
<g>
</g>
<g>
</g>
</svg>
